<svg xmlns="http://www.w3.org/2000/svg" viewBox="64 32 128 168" fill="currentColor">
  <!-- Ötzi icon — segmented Ö for favicon/logo use -->
  <!-- Umlaut dots (eyes) -->
  <rect x="108" y="48" width="16" height="12"/>
  <rect x="132" y="48" width="16" height="12"/>
  <!-- Top horizontal -->
  <polygon points="96,78 104,72 152,72 160,78 152,84 104,84"/>
  <!-- Left vertical -->
  <polygon points="90,84 97,91 97,147 90,154 83,147 83,91"/>
  <!-- Right vertical -->
  <polygon points="166,84 173,91 173,147 166,154 159,147 159,91"/>
  <!-- Bottom horizontal -->
  <polygon points="96,178 104,172 152,172 160,178 152,184 104,184"/>
  <!-- Bottom-left corner joint -->
  <polygon points="96,160 104,168 96,176 88,168"/>
  <!-- Bottom-right corner joint -->
  <polygon points="160,160 168,168 160,176 152,168"/>
</svg>
